<svg xmlns="http://www.w3.org/2000/svg" viewBox="0 0 120 120" width="120" height="120">
  <defs>
    <linearGradient id="grad1" x1="0%" y1="0%" x2="100%" y2="100%">
      <stop offset="0%" style="stop-color:#0a4940;stop-opacity:1" />
      <stop offset="100%" style="stop-color:#2e6b63;stop-opacity:1" />
    </linearGradient>
  </defs>
  
  <!-- Background circle -->
  <circle cx="60" cy="60" r="55" fill="url(#grad1)" stroke="#ffffff" stroke-width="3"/>
  
  <!-- Coffee cup -->
  <path d="M35 40 Q35 35 40 35 L70 35 Q75 35 75 40 L72 70 Q70 75 65 75 L45 75 Q40 75 38 70 Z" fill="#ffffff"/>
  
  <!-- Coffee steam -->
  <path d="M45 30 Q45 25 47 27 Q49 30 47 32" stroke="#ffffff" stroke-width="2" fill="none" stroke-linecap="round"/>
  <path d="M55 28 Q55 23 57 25 Q59 28 57 30" stroke="#ffffff" stroke-width="2" fill="none" stroke-linecap="round"/>
  <path d="M65 30 Q65 25 67 27 Q69 30 67 32" stroke="#ffffff" stroke-width="2" fill="none" stroke-linecap="round"/>
  
  <!-- Coffee cup handle -->
  <path d="M75 45 Q85 45 85 55 Q85 65 75 65" stroke="#ffffff" stroke-width="3" fill="none"/>
  
  <!-- Text -->
  <text x="60" y="95" font-family="Arial, sans-serif" font-size="12" font-weight="bold" text-anchor="middle" fill="#0a4940">TACKA</text>
  <text x="60" y="108" font-family="Arial, sans-serif" font-size="8" text-anchor="middle" fill="#2e6b63">CAFE</text>
</svg> 